<svg width="601" height="101" viewBox="0 0 601 101" fill="none" xmlns="http://www.w3.org/2000/svg">
<rect x="48" width="506" height="87" rx="5" fill="#099C3B"/>
<path d="M68.5 96V29.5C68.5 26.7386 66.2614 24.5 63.5 24.5H5.68353C1.21323 24.5 -1.0104 29.9183 2.17118 33.0586L28.4181 58.9646C30.3925 60.9134 30.4029 64.0971 28.4413 66.0587L2.03553 92.4645C-1.11429 95.6143 1.11654 101 5.57107 101H63.5C66.2614 101 68.5 98.7614 68.5 96Z" fill="#035B21"/>
<path d="M533 95.5V29C533 26.2386 535.239 24 538 24H595.816C600.287 24 602.51 29.4183 599.329 32.5586L573.082 58.4646C571.107 60.4134 571.097 63.5971 573.059 65.5587L599.464 91.9645C602.614 95.1143 600.383 100.5 595.929 100.5H538C535.239 100.5 533 98.2614 533 95.5Z" fill="#035B21"/>
<rect x="48" width="506" height="87" rx="5" fill="#06802F"/>
</svg>
